<?xml version="1.0" standalone="no"?><!DOCTYPE svg PUBLIC "-//W3C//DTD SVG 1.1//EN" "http://www.w3.org/Graphics/SVG/1.1/DTD/svg11.dtd"><svg t="1616857904114" class="icon" viewBox="0 0 1025 1024" version="1.1" xmlns="http://www.w3.org/2000/svg" p-id="13348" xmlns:xlink="http://www.w3.org/1999/xlink" width="200.1953125" height="200"><defs><style type="text/css"></style></defs><path d="M328.6656 170.8288c9.9584-9.9584 9.9584-26.2528 0-36.1984s-26.2528-9.9584-36.1984 0-9.9584 26.2528 0 36.1984S318.7072 180.7872 328.6656 170.8288z" p-id="13349"></path><path d="M636.3904 478.5664c-9.9584 9.9584-9.9584 26.2528 0 36.1984s26.2528 9.9584 36.1984 0 9.9584-26.2528 0-36.1984S646.3488 468.608 636.3904 478.5664z" p-id="13350"></path><path d="M980.3264 822.5024c-9.9584 9.9584-9.9584 26.2528 0 36.1984s26.2528 9.9584 36.1984 0 9.9584-26.2528 0-36.1984S990.2848 812.544 980.3264 822.5024z" p-id="13351"></path><path d="M758.7712 564.736 1024 299.5072 853.3376 128.832 588.096 394.0736 401.0624 207.04c-9.9584-9.9584-26.2528-9.9584-36.1984 0s-9.9584 26.2528 0 36.1984l187.0336 187.0336-125.2352 125.2352-256-256L0 470.1696l256 256 170.6624 170.6624 170.6624-170.6624 125.2352-125.2352L907.9168 786.304c9.9584 9.9584 26.2528 9.9584 36.1984 0 9.9584-9.9584 9.9584-26.2528 0-36.1984L758.7712 564.736zM561.1264 689.9712 426.6624 824.4352 292.1984 689.9712 72.4096 470.1696l98.2528-98.2656 219.8016 219.8016c9.9968 9.9968 23.104 15.0016 36.1984 15.0016s26.2016-5.0048 36.1984-15.0016l390.464-390.464 98.2528 98.2656L561.1264 689.9712z" p-id="13352"></path></svg>