<?xml version="1.0" standalone="no"?><!DOCTYPE svg PUBLIC "-//W3C//DTD SVG 1.1//EN" "http://www.w3.org/Graphics/SVG/1.1/DTD/svg11.dtd"><svg t="1616858262961" class="icon" viewBox="0 0 1024 1024" version="1.1" xmlns="http://www.w3.org/2000/svg" p-id="15125" xmlns:xlink="http://www.w3.org/1999/xlink" width="200" height="200"><defs><style type="text/css"></style></defs><path d="M56.6 920.9c-12.3 0-23.1-7.5-27-18.7-3.8-11 0-23.2 9.5-30.3 101.6-76.1 105.5-206.1 99.2-344.6-0.8-1.9-1.2-4-1.4-6.1l-0.3-4.1c-2.5-38.3-5.1-77.8-3.8-117.2 1.8-55.8 13.1-106.3 33.6-150.1 23.1-49.3 57.5-89.1 102.2-118.4 11.7-7.7 25.5-11.9 40-12.2h553.2c12.6-0.3 23.7 7.2 27.7 18.7 3.8 11 0 23.1-9.5 30.3-67.2 50.3-98.3 125.5-101 248.3-0.2 11-9.4 19.8-20.4 19.6-11-0.2-19.8-9.4-19.6-20.4 1.4-62 9.1-110.7 24.2-153.4 14.7-41.4 36.1-73.8 65-102.2L309.5 159c-6.9 0.2-13.6 2.2-19 5.7-93 61-115.4 162.2-117.8 236.4-1.2 36.7 1.2 74.4 3.6 111 0.9 2.1 1.4 4.4 1.5 6.8 3.3 68.2 5.3 140.3-8.4 207.2-13.1 64.1-39 114.8-78.7 154l518.8 0.8c6.9-0.2 13.6-2.2 19-5.7 15.2-10 29.2-21.5 41.6-34.3 7.7-7.9 20.3-8.1 28.3-0.4 7.9 7.7 8.1 20.3 0.4 28.3-14.4 14.9-30.7 28.3-48.4 39.9-11.7 7.7-25.5 11.9-40 12.2H56.6z" fill="#1C1C1C" p-id="15126"></path><path d="M824.1 813.1c-94.1 0-170.6-76.5-170.6-170.6S730 471.9 824.1 471.9s170.6 76.5 170.6 170.6-76.5 170.6-170.6 170.6z m0-301.1c-72 0-130.6 58.6-130.6 130.6s58.6 130.6 130.6 130.6 130.6-58.6 130.6-130.6S896.1 512 824.1 512z" fill="#1C1C1C" p-id="15127"></path><path d="M885.4 662.6H762.9c-11 0-20-9-20-20s9-20 20-20h122.5c11 0 20 9 20 20s-8.9 20-20 20z" fill="#1C1C1C" p-id="15128"></path><path d="M824.1 723.8c-11 0-20-9-20-20V581.3c0-11 9-20 20-20s20 9 20 20v122.5c0 11.1-8.9 20-20 20z" fill="#1C1C1C" p-id="15129"></path></svg>