<?xml version="1.0" standalone="no"?><!DOCTYPE svg PUBLIC "-//W3C//DTD SVG 1.1//EN" "http://www.w3.org/Graphics/SVG/1.1/DTD/svg11.dtd"><svg t="1616858273464" class="icon" viewBox="0 0 1024 1024" version="1.1" xmlns="http://www.w3.org/2000/svg" p-id="15516" xmlns:xlink="http://www.w3.org/1999/xlink" width="200" height="200"><defs><style type="text/css"></style></defs><path d="M896.64 336.618667l-343.573333 126.634666a100.544 100.544 0 0 1-68.266667 0.405334l-356.693333-126.762667a62.997333 62.997333 0 0 1 0-119.338667l356.693333-126.762666a100.48 100.48 0 0 1 68.266667 0.384L896.64 217.813333a62.997333 62.997333 0 0 1 0 118.805334z m-22.378667-60.842667L530.688 149.141333a35.882667 35.882667 0 0 0-24.213333-0.149333l-356.693334 126.762667a1.194667 1.194667 0 0 0-1.045333 1.472 1.173333 1.173333 0 0 0 1.045333 1.450666l356.693334 126.762667a35.605333 35.605333 0 0 0 24.213333-0.149333l343.573333-126.613334A1.194667 1.194667 0 0 0 875.306667 277.333333a1.173333 1.173333 0 0 0-1.045334-1.557333zM128 736.512l377.429333 136.704a39.018667 39.018667 0 0 0 26.901334-0.149333l363.584-136.533334a31.573333 31.573333 0 1 1 22.378666 59.050667l-363.584 136.533333a103.146667 103.146667 0 0 1-36.032 6.528 102.101333 102.101333 0 0 1-34.901333-6.122666L106.325333 795.818667A31.573333 31.573333 0 1 1 128 736.512z" fill="#333333" p-id="15517"></path><path d="M518.762667 703.808a102.613333 102.613333 0 0 1-34.901334-6.122667L106.410667 561.066667A31.616 31.616 0 1 1 128 501.653333l377.429333 136.725334a39.146667 39.146667 0 0 0 26.901334-0.170667l363.584-136.533333a31.573333 31.573333 0 1 1 22.378666 59.050666l-363.584 136.533334a102.208 102.208 0 0 1-35.946666 6.549333z" fill="#FF9C00" p-id="15518"></path></svg>