<?xml version="1.0" standalone="no"?><!DOCTYPE svg PUBLIC "-//W3C//DTD SVG 1.1//EN" "http://www.w3.org/Graphics/SVG/1.1/DTD/svg11.dtd"><svg t="1616858603033" class="icon" viewBox="0 0 1025 1024" version="1.1" xmlns="http://www.w3.org/2000/svg" p-id="17252" xmlns:xlink="http://www.w3.org/1999/xlink" width="200.1953125" height="200"><defs><style type="text/css"></style></defs><path d="M417.28 1018.88c-2.56 0-5.12 0-7.68-1.28-12.8-3.84-20.48-19.2-16.64-32 39.68-117.76 99.84-225.28 181.76-318.72 28.16-32 58.88-62.72 90.88-90.88 93.44-81.92 200.96-143.36 318.72-181.76 12.8-3.84 28.16 2.56 32 16.64 3.84 12.8-2.56 28.16-16.64 32C888.32 480 787.2 537.6 698.88 614.4c-29.44 25.6-58.88 55.04-84.48 85.76-76.8 88.32-135.68 189.44-171.52 300.8-5.12 10.24-14.08 17.92-25.6 17.92zM30.72 632.32c-10.24 0-20.48-6.4-24.32-17.92-3.84-12.8 2.56-28.16 16.64-32 111.36-37.12 212.48-94.72 300.8-171.52 30.72-26.88 60.16-55.04 87.04-87.04 76.8-88.32 135.68-189.44 171.52-300.8C586.24 10.24 601.6 2.56 614.4 6.4 627.2 10.24 634.88 25.6 631.04 38.4c-39.68 117.76-99.84 225.28-181.76 318.72-28.16 32-58.88 62.72-90.88 90.88-93.44 81.92-200.96 143.36-318.72 181.76-3.84 1.28-6.4 2.56-8.96 2.56z" fill="#2c2c2c" p-id="17253"></path><path d="M358.4 1024C161.28 1024 0 862.72 0 665.6c0-21.76 1.28-42.24 6.4-64 2.56-14.08 15.36-23.04 29.44-20.48 14.08 2.56 23.04 15.36 20.48 29.44-3.84 17.92-5.12 37.12-5.12 55.04 0 168.96 138.24 307.2 307.2 307.2 17.92 0 35.84-1.28 53.76-5.12 14.08-2.56 26.88 6.4 29.44 20.48 2.56 14.08-6.4 26.88-20.48 29.44-19.2 3.84-40.96 6.4-62.72 6.4zM993.28 442.88h-5.12c-14.08-2.56-23.04-15.36-20.48-29.44 3.84-17.92 5.12-35.84 5.12-55.04C972.8 189.44 834.56 51.2 665.6 51.2c-17.92 0-37.12 1.28-55.04 5.12-14.08 2.56-26.88-6.4-29.44-20.48-2.56-14.08 6.4-26.88 20.48-29.44 20.48-3.84 42.24-6.4 64-6.4h1.28c197.12 0 358.4 161.28 358.4 358.4 0 21.76-1.28 42.24-6.4 64-2.56 11.52-14.08 20.48-25.6 20.48z" fill="#2c2c2c" p-id="17254"></path><path d="M417.28 1018.88h-5.12c-14.08-2.56-23.04-15.36-20.48-29.44 3.84-17.92 5.12-35.84 5.12-53.76 0-168.96-138.24-307.2-307.2-307.2-17.92 0-35.84 1.28-53.76 5.12-14.08 2.56-26.88-6.4-29.44-20.48-2.56-14.08 6.4-26.88 20.48-29.44 20.48-6.4 40.96-7.68 62.72-7.68 197.12 0 358.4 161.28 358.4 358.4 0 21.76-1.28 42.24-5.12 62.72-2.56 12.8-14.08 21.76-25.6 21.76zM606.72 696.32c-11.52 0-21.76-7.68-25.6-20.48-25.6-116.48-117.76-207.36-232.96-232.96-14.08-2.56-23.04-16.64-19.2-30.72 2.56-14.08 16.64-23.04 30.72-19.2C494.08 422.4 601.6 529.92 631.04 664.32c2.56 14.08-5.12 26.88-19.2 30.72-1.28 0-3.84 1.28-5.12 1.28zM723.2 587.52c-11.52 0-23.04-8.96-25.6-20.48-24.32-121.6-119.04-216.32-240.64-240.64-14.08-2.56-23.04-16.64-20.48-30.72 2.56-14.08 16.64-23.04 30.72-20.48 142.08 28.16 253.44 138.24 281.6 281.6 2.56 14.08-6.4 26.88-20.48 30.72h-5.12z" fill="#2c2c2c" p-id="17255"></path><path d="M239.36 883.2C107.52 883.2 0 775.68 0 645.12c0-14.08 1.28-29.44 3.84-43.52 2.56-14.08 15.36-23.04 29.44-20.48 14.08 2.56 23.04 15.36 20.48 29.44-1.28 11.52-2.56 23.04-2.56 34.56 0 102.4 84.48 186.88 188.16 186.88 8.96 0 16.64 0 24.32-1.28l81.92-99.84c8.96-11.52 25.6-12.8 35.84-3.84 11.52 8.96 12.8 25.6 3.84 35.84L296.96 870.4c-3.84 5.12-8.96 7.68-15.36 8.96-14.08 2.56-28.16 3.84-42.24 3.84zM675.84 828.16c-14.08 0-25.6-11.52-25.6-25.6V601.6c0-14.08 11.52-25.6 25.6-25.6h160c14.08 0 25.6 11.52 25.6 25.6s-11.52 25.6-25.6 25.6H701.44v175.36c0 14.08-11.52 25.6-25.6 25.6z" fill="#2c2c2c" p-id="17256"></path></svg>