<?xml version="1.0" standalone="no"?><!DOCTYPE svg PUBLIC "-//W3C//DTD SVG 1.1//EN" "http://www.w3.org/Graphics/SVG/1.1/DTD/svg11.dtd"><svg t="1616858256409" class="icon" viewBox="0 0 1024 1024" version="1.1" xmlns="http://www.w3.org/2000/svg" p-id="14864" xmlns:xlink="http://www.w3.org/1999/xlink" width="200" height="200"><defs><style type="text/css"></style></defs><path d="M896 234.7c11.8 0 21.3-9.6 21.3-21.3V106.7c0-23.6-19.1-42.7-42.7-42.7H149.3c-23.6 0-42.7 19.1-42.7 42.7v810.7c0 23.6 19.1 42.7 42.7 42.7h725.3c23.6 0 42.7-19.1 42.7-42.7V384c0-11.8-9.6-21.3-21.3-21.3s-21.3 9.6-21.3 21.3v512c0 11.8-9.6 21.3-21.3 21.3H170.7c-11.8 0-21.3-9.6-21.3-21.3V128c0-11.8 9.6-21.3 21.3-21.3h682.7c11.8 0 21.3 9.6 21.3 21.3v85.3c0 11.8 9.5 21.4 21.3 21.4z m-234.7 42.6c0-11.8-9.6-21.3-21.3-21.3H384c-11.8 0-21.3 9.6-21.3 21.3v325.9c0 16.4 17.7 26.6 31.9 18.5l117.4-67 117.4 67.1c14.2 8.1 31.9-2.1 31.9-18.5v-326zM618.7 576l-101.2-60.7c-3.4-2-7.6-2-11 0L405.3 576V298.7h213.3V576zM384 725.3c-11.8 0-21.3 9.6-21.3 21.3 0 11.8 9.6 21.3 21.3 21.3h256c11.8 0 21.3-9.6 21.3-21.3 0-11.8-9.6-21.3-21.3-21.3H384z" fill="#000000" p-id="14865"></path></svg>